<svg width="26" height="26" viewBox="0 0 26 26" fill="none" xmlns="http://www.w3.org/2000/svg">
<path d="M16.3358 17.3333C16.5765 17.3333 16.7345 17.458 16.7985 17.5187C16.8758 17.592 16.9305 17.6847 16.9778 17.7787C17.0406 17.8879 17.1331 17.9771 17.2445 18.036C17.3332 18.0847 17.4158 18.1313 17.4865 18.2067C17.6033 18.3313 17.6683 18.4957 17.6685 18.6665C17.6686 18.8374 17.6038 19.0018 17.4872 19.1267C17.4165 19.2027 17.3338 19.2487 17.2438 19.2973C17.1324 19.3562 17.0399 19.4454 16.9772 19.5547C16.9258 19.65 16.8798 19.7393 16.7992 19.8147C16.6741 19.9333 16.5082 19.9994 16.3358 19.9994C16.1634 19.9994 15.9976 19.9333 15.8725 19.8147C15.7925 19.7387 15.7458 19.65 15.6938 19.5547C15.631 19.4454 15.5386 19.3562 15.4272 19.2973C15.3371 19.255 15.255 19.1975 15.1845 19.1273C15.0677 19.0025 15.0028 18.8378 15.0029 18.6669C15.003 18.4959 15.0682 18.3314 15.1852 18.2067C15.2556 18.1363 15.3377 18.0785 15.4278 18.036C15.5392 17.9771 15.6317 17.8879 15.6945 17.7787C15.7458 17.6833 15.7925 17.594 15.8725 17.5187C15.9365 17.4587 16.0945 17.3333 16.3358 17.3333ZM14.1812 9.52133L17.4812 12.8213L11.4198 18.8813C11.2874 19.0138 11.1204 19.1065 10.9378 19.1487L7.96783 19.834C7.85757 19.8596 7.74262 19.8566 7.6338 19.8255C7.52499 19.7943 7.4259 19.736 7.34587 19.656C7.26583 19.5759 7.20749 19.4768 7.17635 19.368C7.1452 19.2592 7.14227 19.1443 7.16783 19.034L7.85316 16.064C7.89517 15.8815 7.98757 15.7145 8.11983 15.582L14.1812 9.52133ZM18.4238 8.10733L18.8952 8.57867C19.2701 8.95372 19.4807 9.46234 19.4807 9.99267C19.4807 10.523 19.2701 11.0316 18.8952 11.4067L18.4238 11.878L15.1238 8.578L15.5952 8.10733C15.7809 7.92158 16.0014 7.77423 16.244 7.6737C16.4867 7.57317 16.7468 7.52143 17.0095 7.52143C17.2722 7.52143 17.5323 7.57317 17.7749 7.6737C18.0176 7.77423 18.2381 7.92158 18.4238 8.10733ZM9.00249 6C9.14156 6.00006 9.27712 6.0436 9.39021 6.12453C9.50329 6.20546 9.58824 6.31972 9.63316 6.45133L9.71916 6.70267C9.91916 7.28933 10.3805 7.74933 10.9658 7.95L11.2178 8.03667C11.3491 8.08186 11.4629 8.16688 11.5435 8.27988C11.6241 8.39288 11.6674 8.52821 11.6674 8.667C11.6674 8.80579 11.6241 8.94112 11.5435 9.05412C11.4629 9.16712 11.3491 9.25214 11.2178 9.29733L10.9665 9.384C10.3798 9.584 9.91983 10.044 9.71983 10.6307L9.63316 10.882C9.58779 11.0132 9.50267 11.1269 9.38963 11.2074C9.27659 11.2879 9.14127 11.3312 9.00249 11.3312C8.86372 11.3312 8.72839 11.2879 8.61536 11.2074C8.50232 11.1269 8.41719 11.0132 8.37183 10.882L8.28583 10.63C8.18709 10.3408 8.02339 10.078 7.80728 9.86188C7.59116 9.64577 7.3284 9.48207 7.03916 9.38333L6.78649 9.29733C6.65503 9.25228 6.54093 9.16728 6.46015 9.0542C6.37936 8.94113 6.33594 8.80563 6.33594 8.66667C6.33594 8.5277 6.37936 8.39221 6.46015 8.27913C6.54093 8.16605 6.65503 8.08105 6.78649 8.036L7.03916 7.94933C7.62516 7.74933 8.08583 7.28933 8.28583 6.70267L8.37183 6.45133C8.41674 6.31972 8.50169 6.20546 8.61478 6.12453C8.72787 6.0436 8.86343 6.00006 9.00249 6Z" fill="#DF6647"/>
<circle cx="13" cy="13" r="12.5" stroke="#DF6647"/>
</svg>
