<svg width="1445" height="603" viewBox="0 0 1445 603" fill="none" xmlns="http://www.w3.org/2000/svg">
<g filter="url(#filter0_d_1254_16405)">
<path fill-rule="evenodd" clip-rule="evenodd" d="M1563 96.0328C1563 113.461 1556.56 129.148 1546.29 140.083C1555.69 149.906 1561.22 161.959 1561.22 174.983C1561.22 179.738 1560.49 184.363 1559.09 188.797V594.203H-55.8759V285.718C-73.686 268.332 -85 242.308 -85 213.225C-85 160.878 -48.3469 118.443 -3.13276 118.443C29.8088 118.443 58.2059 140.968 71.1949 173.44C80.4919 167.731 91.0966 164.498 102.353 164.498C121.051 164.498 137.949 173.419 150.045 187.786C165.545 168.883 187.457 157.096 211.747 157.096C258.726 157.096 296.81 201.188 296.81 255.579C296.81 266.202 295.357 276.434 292.669 286.02C295.794 285.337 299.019 284.979 302.316 284.979C320.887 284.979 337.172 296.323 346.282 313.354C352.8 309.92 360.042 308.007 367.667 308.007C389.23 308.007 407.706 323.292 415.452 345.016H415.793C421.479 345.016 426.885 346.41 431.765 348.918C435.242 308.854 464.448 277.578 499.969 277.578C537.827 277.578 568.517 313.109 568.517 356.94C568.517 361.497 568.187 365.966 567.548 370.317C572.399 368.569 577.556 367.632 582.902 367.632C611.443 367.632 634.579 394.417 634.579 427.461C634.579 432.581 634.025 437.548 632.977 442.293C647.017 432.934 665.49 427.256 685.724 427.256C710.096 427.256 731.907 435.496 746.501 448.478C747.808 397.612 777.82 356.94 814.652 356.94C824.82 356.94 834.47 360.041 843.14 365.6C841.925 358.133 841.29 350.427 841.29 342.548C841.29 274.19 889.153 218.776 948.197 218.776C990.913 218.776 1027.78 247.78 1044.9 289.706C1052.21 285.118 1060.59 282.512 1069.49 282.512C1070.67 282.512 1071.85 282.558 1073.01 282.649C1080.64 260.637 1099.25 245.093 1120.99 245.093C1129.76 245.093 1138.03 247.626 1145.27 252.095C1153.29 241.908 1163.54 232.565 1175.57 225.06C1200.4 209.566 1226.73 205.672 1245.99 212.563C1242 199.194 1242.1 185.986 1247.2 174.788C1260.51 145.559 1302.81 141.098 1341.68 164.825C1343.19 165.745 1344.68 166.701 1346.15 167.693C1356.38 136.542 1377.51 115.154 1401.93 115.154C1413.21 115.154 1423.79 119.718 1432.91 127.7C1441.63 122.61 1451.79 118.853 1462.86 116.836C1460.78 110.357 1459.64 103.348 1459.64 96.0328C1459.64 62.9896 1482.78 36.2031 1511.32 36.2031C1539.86 36.2031 1563 62.9896 1563 96.0328Z" fill="#FDFCFC"/>
</g>
<defs>
<filter id="filter0_d_1254_16405" x="-107.2" y="0.00312424" width="1692.4" height="602.4" filterUnits="userSpaceOnUse" color-interpolation-filters="sRGB">
<feFlood flood-opacity="0" result="BackgroundImageFix"/>
<feColorMatrix in="SourceAlpha" type="matrix" values="0 0 0 0 0 0 0 0 0 0 0 0 0 0 0 0 0 0 127 0" result="hardAlpha"/>
<feOffset dy="-14"/>
<feGaussianBlur stdDeviation="11.1"/>
<feComposite in2="hardAlpha" operator="out"/>
<feColorMatrix type="matrix" values="0 0 0 0 0 0 0 0 0 0 0 0 0 0 0 0 0 0 0.05 0"/>
<feBlend mode="normal" in2="BackgroundImageFix" result="effect1_dropShadow_1254_16405"/>
<feBlend mode="normal" in="SourceGraphic" in2="effect1_dropShadow_1254_16405" result="shape"/>
</filter>
</defs>
</svg>
